<mxfile host="app.diagrams.net" agent="Mozilla/5.0 (Windows NT 10.0; Win64; x64) AppleWebKit/537.36 (KHTML, like Gecko) Chrome/135.0.0.0 Safari/537.36" version="26.2.14">
  <diagram id="C5RBs43oDa-KdzZeNtuy" name="Page-1">
    <mxGraphModel dx="872" dy="465" grid="1" gridSize="10" guides="1" tooltips="1" connect="1" arrows="1" fold="1" page="1" pageScale="1" pageWidth="827" pageHeight="1169" math="0" shadow="0">
      <root>
        <mxCell id="WIyWlLk6GJQsqaUBKTNV-0" />
        <mxCell id="WIyWlLk6GJQsqaUBKTNV-1" parent="WIyWlLk6GJQsqaUBKTNV-0" />
        <mxCell id="w_ydLIhbD58FONDeldrW-0" value="EXAMINE AND UNDERSTAND DATA&lt;div&gt;1. Setup&lt;/div&gt;&lt;div&gt;2. Load dataset&lt;/div&gt;&lt;div&gt;3. Visualize the data&lt;/div&gt;&lt;div&gt;4. Configure the dataset for performance&lt;/div&gt;&lt;div&gt;&lt;br&gt;&lt;/div&gt;" style="rounded=0;whiteSpace=wrap;html=1;" vertex="1" parent="WIyWlLk6GJQsqaUBKTNV-1">
          <mxGeometry x="40" y="130" width="230" height="100" as="geometry" />
        </mxCell>
        <mxCell id="w_ydLIhbD58FONDeldrW-1" value="BUILD AN INPUT PIPELINE&lt;div&gt;1. C&lt;span style=&quot;background-color: transparent; color: light-dark(rgb(0, 0, 0), rgb(255, 255, 255));&quot;&gt;onfigure the dataset for performance&lt;/span&gt;&lt;/div&gt;&lt;div&gt;&lt;br&gt;&lt;/div&gt;" style="rounded=0;whiteSpace=wrap;html=1;" vertex="1" parent="WIyWlLk6GJQsqaUBKTNV-1">
          <mxGeometry x="320" y="130" width="140" height="100" as="geometry" />
        </mxCell>
        <mxCell id="w_ydLIhbD58FONDeldrW-2" value="" style="shape=flexArrow;endArrow=classic;html=1;rounded=0;exitX=1;exitY=0.5;exitDx=0;exitDy=0;" edge="1" parent="WIyWlLk6GJQsqaUBKTNV-1" source="w_ydLIhbD58FONDeldrW-0" target="w_ydLIhbD58FONDeldrW-1">
          <mxGeometry width="50" height="50" relative="1" as="geometry">
            <mxPoint x="390" y="290" as="sourcePoint" />
            <mxPoint x="440" y="240" as="targetPoint" />
          </mxGeometry>
        </mxCell>
        <mxCell id="w_ydLIhbD58FONDeldrW-3" value="THE MODEL&lt;div&gt;1. Create the model&lt;/div&gt;&lt;div&gt;2. Compile the model&lt;/div&gt;&lt;div&gt;3. Model Summary&lt;/div&gt;&lt;div&gt;4. Train the model&lt;/div&gt;&lt;div&gt;5. Test the model&lt;/div&gt;&lt;div&gt;6. Visualize training results&lt;/div&gt;" style="rounded=0;whiteSpace=wrap;html=1;" vertex="1" parent="WIyWlLk6GJQsqaUBKTNV-1">
          <mxGeometry x="530" y="125" width="160" height="110" as="geometry" />
        </mxCell>
        <mxCell id="w_ydLIhbD58FONDeldrW-4" value="" style="shape=flexArrow;endArrow=classic;html=1;rounded=0;exitX=1;exitY=0.5;exitDx=0;exitDy=0;entryX=0;entryY=0.5;entryDx=0;entryDy=0;" edge="1" parent="WIyWlLk6GJQsqaUBKTNV-1" source="w_ydLIhbD58FONDeldrW-1" target="w_ydLIhbD58FONDeldrW-3">
          <mxGeometry width="50" height="50" relative="1" as="geometry">
            <mxPoint x="390" y="290" as="sourcePoint" />
            <mxPoint x="440" y="240" as="targetPoint" />
          </mxGeometry>
        </mxCell>
        <mxCell id="w_ydLIhbD58FONDeldrW-5" value="IMPROVE THE MODEL AND REPEAT THE PROCESS&lt;div&gt;1. Overfitting&lt;/div&gt;&lt;div&gt;2. Data Augmentation&lt;/div&gt;&lt;div&gt;3. Dropout&lt;/div&gt;&lt;div&gt;4. Compile and train the model&lt;/div&gt;&lt;div&gt;5. Visualize training results&lt;/div&gt;" style="rounded=0;whiteSpace=wrap;html=1;" vertex="1" parent="WIyWlLk6GJQsqaUBKTNV-1">
          <mxGeometry x="510" y="290" width="200" height="130" as="geometry" />
        </mxCell>
        <mxCell id="w_ydLIhbD58FONDeldrW-6" value="" style="shape=flexArrow;endArrow=classic;html=1;rounded=0;exitX=0.5;exitY=1;exitDx=0;exitDy=0;entryX=0.5;entryY=0;entryDx=0;entryDy=0;" edge="1" parent="WIyWlLk6GJQsqaUBKTNV-1" source="w_ydLIhbD58FONDeldrW-3" target="w_ydLIhbD58FONDeldrW-5">
          <mxGeometry width="50" height="50" relative="1" as="geometry">
            <mxPoint x="390" y="290" as="sourcePoint" />
            <mxPoint x="440" y="240" as="targetPoint" />
          </mxGeometry>
        </mxCell>
        <mxCell id="w_ydLIhbD58FONDeldrW-7" value="TEST THE MODEL IN REAL LIFE&lt;div&gt;1. Predict on new data&lt;/div&gt;&lt;div&gt;2. Use TensorFlow Lite to convert to TensorFlow Lite model&lt;/div&gt;&lt;div&gt;3. Run the TensorFlow Lite model&lt;/div&gt;" style="rounded=0;whiteSpace=wrap;html=1;" vertex="1" parent="WIyWlLk6GJQsqaUBKTNV-1">
          <mxGeometry x="250" y="290" width="200" height="130" as="geometry" />
        </mxCell>
        <mxCell id="w_ydLIhbD58FONDeldrW-8" value="" style="shape=flexArrow;endArrow=classic;html=1;rounded=0;exitX=0;exitY=0.5;exitDx=0;exitDy=0;entryX=1;entryY=0.5;entryDx=0;entryDy=0;" edge="1" parent="WIyWlLk6GJQsqaUBKTNV-1" source="w_ydLIhbD58FONDeldrW-5" target="w_ydLIhbD58FONDeldrW-7">
          <mxGeometry width="50" height="50" relative="1" as="geometry">
            <mxPoint x="390" y="290" as="sourcePoint" />
            <mxPoint x="440" y="240" as="targetPoint" />
          </mxGeometry>
        </mxCell>
      </root>
    </mxGraphModel>
  </diagram>
</mxfile>
